<?xml version="1.0" encoding="utf-8"?>
<!-- Generator: Adobe Illustrator 26.5.3, SVG Export Plug-In . SVG Version: 6.00 Build 0)  -->
<svg version="1.1"
	 id="svg2" xmlns:svg="http://www.w3.org/2000/svg" xmlns:cc="http://web.resource.org/cc/" xmlns:dc="http://purl.org/dc/elements/1.1/" xmlns:rdf="http://www.w3.org/1999/02/22-rdf-syntax-ns#" xmlns:inkscape="http://www.inkscape.org/namespaces/inkscape" xmlns:sodipodi="http://sodipodi.sourceforge.net/DTD/sodipodi-0.dtd" inkscape:output_extension="org.inkscape.output.svg.inkscape"
	 xmlns="http://www.w3.org/2000/svg" xmlns:xlink="http://www.w3.org/1999/xlink" x="0px" y="0px" viewBox="0 0 85 81"
	 style="enable-background:new 0 0 85 81;" xml:space="preserve">
<style type="text/css">
	.st0{fill:#FFFFFF;}
</style>
<sodipodi:namedview  bordercolor="#666666" borderopacity="1.0" gridtolerance="10.0" guidetolerance="10.0" height="81px" id="base" inkscape:current-layer="svg2" inkscape:cx="391.90425" inkscape:cy="58.550413" inkscape:pageopacity="0.0" inkscape:pageshadow="2" inkscape:window-height="844" inkscape:window-width="1356" inkscape:window-x="330" inkscape:window-y="79" inkscape:zoom="1.2182739" objecttolerance="10.0" pagecolor="#ffffff" width="85px">
	</sodipodi:namedview>
<path id="MI_1_" class="st0" d="M17.1,2.7l1.2-1l1.3-0.3l3.3-1.8l1.3-0.2l0.2,0.3l-3.2,2.5l-2,0.9l-1.2,0.4L17.1,2.7z M63.2,26.3
	l0.2,1.4l1.8,0.3l0.8-0.6c0,0,0.1-0.8-0.1-0.9c-0.2-0.1-0.8-1.1-0.8-1.1l-1.2,0l-0.9,0L62.7,26L63.2,26.3z M75.9,63.5l-1.3-4.8
	L74,53.5l-1.1-2l-1.3-1.2l-1,0.5l-2.3,0.7l-1.4,2.7L65,56.2l-0.7,0.3L63.6,56c0,0-1.4-1-1.2-1.3c0.1-0.3,0.6-2.8,0.6-2.8l2-0.5
	l0.7-1.8l0.5-1.4l1.5-0.7l0.5-5.6l-0.8-1.4l-0.7-0.5l-0.3-1.2l0.5-0.4l0.9,0.3l0.2-0.9l-1.2-1.4l-0.6-1.5l-1.4-0.2l-2.4-1.1
	l-2.9-2.3L57.9,31l-0.4,0.3L57,31l-1.6-1.5l-1.7,0.8l-1.8,1.1l-0.1,2l0.5,0.2l1.1,0.4l0.2,0.5l-1.5,0.3l-1.5,0l-0.9,0.9l-0.3,1.2
	l0.1,0.9l-0.2,3.1l-2.1,0.9l-0.4-0.1l0.3-2.4l0.9-1.3l0.5-1.3l-0.4-0.5L47,36.6l-0.8,2.3l-1.6,0.5l-1.1,1l-0.2,0.5l0.3,0.5l-0.5,1.4
	l-1.3,0.1l-0.1,0.6l0.3,1.4l-1,3.4l-1.2,2.2l0.1,2.7l0.2,0.7l-0.6,1.3l-0.2,0.4L38.9,57l1.6,3.6l1.2,3.8l0.5,2.8l-0.8,2.6l-0.9,3.3
	l-1.7,2.7l-0.4,1.5l-1.9,1.5l-0.5,0.4l2.6,0.2l12.4,0.2l3.5,0l0.1,0.7l4.4-0.2l5.8-0.2l2.9,0.1l-0.7-0.7l0.2-0.8l1.4-1.9l1.2-0.8
	l0.2-2.8l1-0.8l0.6-0.1l0.4-2l1.1-1.6l0.5,0.4l0,0.4l0.4,0.1l1.1-0.4L75.9,63.5z M6.6,18.3l1.1-0.5l1.6-0.3l2.1-1l0.1-0.5l0.4-0.3
	l3.4-0.2l1.5-0.9l2.6-0.9l0.2-0.7l1.3-1.5l1-0.3l0.8-0.9l1.4-1.1L26.7,8l2.7,0l0.6,0.7l-0.2,0.5l-2.1,0.3l-1,1.6l-1.3,0.3l-0.4,1.3
	l-1.6,1.6l-0.3,1.4l0.4,0.3l0.6-0.6l2.2-1.4l0.6,0.8l1.3,0.1l1.7,0.8l0.7,0.7l0.6,1.8l1.4,1.7l2.2,0.2l0.9-0.4l0.8,0.8l0.9,0.4
	l0.8-0.4l0.6,0.1l1-0.4l2.5-1.7l2-0.4l3.7,0.2l2.7-0.8l1.5-0.6l0.8,0.2l-0.4,3.2l0.3,0.2l1.6,0.6l1.1-0.1l3.5-0.5l0.7-0.6l0.8,0.4
	l-0.5,3.9l1.6,1.9l0.7,0.4l0.7,0.6l-0.7,0.1l-0.4-0.2l-2-0.5L58.4,27l-1.3-0.2l-1.9,0.6l-1-0.1l-3.2-1.1l-2.9-0.2L47,27.3L43,27.2
	l-1.4,0.3l-0.8,1.6L40,29.7l-0.3-0.1l-0.7-1l-2.7,1.1l-0.4,0l-0.5-1l-0.5,0l-1.4,2.3l-0.8,2.2l-2.6,4.3l-0.8-0.7l-0.7-0.9L28.4,30
	l-2-0.9l-0.6-1.4L19,25.4l-1.3-0.8l-4.5-1.8l-4.5-1.2L6.6,18.3z"/>
</svg>
