<?xml version="1.0" encoding="utf-8"?>
<!-- Generator: Adobe Illustrator 26.5.3, SVG Export Plug-In . SVG Version: 6.00 Build 0)  -->
<svg version="1.1" id="Layer_1" xmlns="http://www.w3.org/2000/svg" xmlns:xlink="http://www.w3.org/1999/xlink" x="0px" y="0px"
	 viewBox="0 0 16 16" style="enable-background:new 0 0 16 16;" xml:space="preserve">
<style type="text/css">
	.st0{fill:#FFE008;}
</style>
<path class="st0" d="M8,0C3.6,0,0,3.6,0,8c0,3.3,2,6.3,5.1,7.5c-0.1-0.6-0.1-1.6,0-2.3c0.1-0.6,0.9-4,0.9-4S5.8,8.7,5.8,8
	C5.8,6.9,6.5,6,7.3,6c0.7,0,1,0.5,1,1.1c0,0.7-0.4,1.7-0.7,2.7c-0.2,0.8,0.4,1.4,1.2,1.4c1.4,0,2.5-1.5,2.5-3.7
	c0-1.9-1.4-3.3-3.3-3.3c-2.3,0-3.6,1.7-3.6,3.5c0,0.7,0.3,1.4,0.6,1.8C5,9.7,5,9.8,5,9.9c-0.1,0.3-0.2,0.8-0.2,0.9
	c0,0.1-0.1,0.2-0.3,0.1c-1-0.5-1.6-1.9-1.6-3.1C2.9,5.3,4.7,3,8.2,3c2.8,0,4.9,2,4.9,4.6c0,2.8-1.7,5-4.2,5c-0.8,0-1.6-0.4-1.8-0.9
	l-0.5,1.9c-0.2,0.7-0.7,1.6-1,2.1c4.2,1.3,8.7-1.1,10-5.3s-1.1-8.7-5.3-10C9.6,0.1,8.8,0,8,0z"/>
</svg>
